<mxfile host="drawio-plugin" modified="2022-01-01T07:47:56.280Z" agent="5.0 (Macintosh; Intel Mac OS X 11_5_2) AppleWebKit/537.36 (KHTML, like Gecko) Chrome/89.0.4389.114 Safari/537.36" version="14.7.4" etag="ugbuSzXnH8p_JrR50Az3" type="embed"><diagram id="yfPx3KgmZRJuuDZsZWZM" name="ページ1"><mxGraphModel dx="1182" dy="730" grid="1" gridSize="10" guides="1" tooltips="1" connect="1" arrows="1" fold="1" page="1" pageScale="1" pageWidth="827" pageHeight="1169" math="0" shadow="0"><root><mxCell id="0"/><mxCell id="1" parent="0"/><mxCell id="5" style="edgeStyle=none;html=1;entryX=0.5;entryY=1;entryDx=0;entryDy=0;" parent="1" edge="1"><mxGeometry relative="1" as="geometry"><mxPoint x="240" y="230" as="targetPoint"/><mxPoint x="240" y="169.9999999999999" as="sourcePoint"/><Array as="points"><mxPoint x="240" y="100"/><mxPoint x="590" y="100"/><mxPoint x="590" y="300"/><mxPoint x="240" y="300"/></Array></mxGeometry></mxCell><mxCell id="6" value="&lt;font style=&quot;font-size: 17px&quot;&gt;認識する度に&lt;br&gt;音楽が流れてしまう。&lt;/font&gt;" style="edgeLabel;html=1;align=center;verticalAlign=middle;resizable=0;points=[];" parent="5" vertex="1" connectable="0"><mxGeometry x="-0.04" y="1" relative="1" as="geometry"><mxPoint x="-1" y="16" as="offset"/></mxGeometry></mxCell><mxCell id="3" value="&lt;font style=&quot;font-size: 17px&quot;&gt;while内&lt;br&gt;(骨格ジェスチャー認識)&lt;/font&gt;" style="label;whiteSpace=wrap;html=1;image=img/clipart/Gear_128x128.png" parent="1" vertex="1"><mxGeometry x="110" y="160" width="250" height="70" as="geometry"/></mxCell></root></mxGraphModel></diagram></mxfile>